<svg width="300" height="200" viewBox="0 0 300 200" fill="none" xmlns="http://www.w3.org/2000/svg">
  <rect width="300" height="200" fill="#f0f0f0"/>
  <path d="M150 80C161.046 80 170 71.0457 170 60C170 48.9543 161.046 40 150 40C138.954 40 130 48.9543 130 60C130 71.0457 138.954 80 150 80Z" fill="#d0d0d0"/>
  <path d="M80 160C80 126.863 106.863 100 140 100H160C193.137 100 220 126.863 220 160V200H80V160Z" fill="#d0d0d0"/>
  <path d="M100 50L120 65L100 80V50Z" fill="#d0d0d0"/>
  <path d="M200 50L180 65L200 80V50Z" fill="#d0d0d0"/>
</svg> 