                <svg version="1.0" xmlns="http://www.w3.org/2000/svg" height="38pt" viewBox="0 0 561 194">        
                <g transform="translate(0,194) scale(0.1,-0.1)" fill="#000000" stroke="none">
                    <path d="M1100 1869 c-118 -21 -131 -25 -235 -76 -145 -70 -263 -191 -339
                    -348 -49 -99 -62 -155 -65 -272 -3 -127 38 -235 136 -355 31 -38 58 -68 62
                    -68 3 -1 23 -16 44 -34 l39 -32 -31 -53 c-17 -28 -31 -58 -31 -64 0 -7 -4 -17
                    -9 -22 -5 -6 -17 -46 -26 -90 -9 -44 -17 -80 -18 -81 -3 -3 -356 -44 -401 -46
                    -49 -4 -60 -25 -14 -30 l33 -4 -40 -11 c-22 -6 -52 -14 -67 -17 -45 -10 -34
                    -29 12 -23 22 3 38 1 35 -3 -15 -25 24 -23 225 11 36 6 79 9 95 8 18 -3 -19
                    -12 -87 -23 -84 -13 -118 -23 -118 -32 0 -8 7 -14 15 -14 8 0 15 -4 15 -10 0
                    -5 -9 -10 -21 -10 -12 0 -19 -5 -17 -12 4 -12 82 -13 121 -2 31 9 18 -14 -15
                    -25 -24 -8 -29 -14 -20 -23 8 -8 54 -5 179 11 235 31 302 41 346 52 23 6 44 6
                    54 1 18 -11 2 -16 -92 -28 -27 -3 -81 -13 -120 -21 -38 -7 -86 -16 -105 -19
                    -41 -7 -47 -11 -34 -24 8 -8 110 6 639 90 236 37 255 41 255 56 0 16 -5 17
                    -90 4 -36 -6 -112 -17 -170 -25 -58 -8 -116 -17 -130 -20 -24 -5 -24 -5 -6 10
                    11 8 36 15 55 15 20 0 71 7 114 15 43 8 81 15 84 15 3 0 3 6 0 14 -4 10 8 15
                    45 18 31 3 56 12 63 21 12 17 22 18 128 17 65 0 88 9 134 53 27 26 46 32 120
                    43 48 8 170 14 271 14 149 0 182 3 182 14 0 20 -409 27 -490 9 -41 -9 -56 -10
                    -59 -1 -7 22 -54 58 -75 58 -14 0 -28 12 -40 33 -11 17 -36 58 -57 89 -22 32
                    -39 62 -39 66 0 5 12 14 26 21 95 43 221 204 240 306 3 22 14 54 22 70 23 46
                    21 191 -6 295 -31 121 -104 261 -171 326 -58 57 -175 121 -271 148 -65 18
                    -216 26 -280 15z m286 -68 c83 -28 111 -41 177 -84 69 -45 76 -70 10 -32 -65
                    36 -124 48 -226 47 -80 -1 -96 -5 -160 -36 -133 -65 -289 -226 -352 -364 -62
                    -135 -79 -238 -60 -362 6 -43 5 -47 -34 -85 -57 -54 -52 -67 6 -15 42 40 47
                    42 54 24 33 -91 187 -214 267 -214 44 0 38 19 -14 43 -67 32 -140 84 -168 121
                    -66 87 -88 210 -57 326 l17 64 59 11 c33 7 80 20 105 30 52 22 187 103 242
                    147 22 17 42 27 46 23 4 -3 -8 -33 -26 -66 -18 -33 -30 -64 -27 -69 13 -21 32
                    -8 60 40 33 56 44 60 19 6 -14 -29 -15 -39 -5 -49 10 -9 15 -8 27 7 14 20 14
                    20 14 0 0 -10 9 -25 20 -32 27 -16 52 -3 80 43 33 53 53 47 48 -17 -4 -61 16
                    -78 35 -29 14 39 20 39 47 1 30 -42 47 -38 64 18 16 53 15 54 36 -78 12 -73
                    37 -138 67 -172 13 -14 11 -23 -16 -75 -70 -137 -179 -233 -301 -265 -40 -10
                    -105 -17 -167 -17 -105 -1 -122 -8 -91 -39 17 -17 170 -15 238 2 29 8 59 12
                    66 9 14 -5 70 -86 98 -141 24 -47 52 -72 80 -72 13 0 29 -6 35 -14 9 -11 6
                    -20 -16 -45 -34 -37 -89 -52 -99 -27 -7 17 -34 21 -50 8 -5 -5 -20 -6 -32 -3
                    l-24 6 27 29 c29 31 28 52 -3 49 -17 -2 -22 6 -32 50 -16 66 -27 87 -45 87
                    -19 0 -19 -7 4 -106 25 -110 22 -114 -133 -154 -122 -31 -146 -32 -146 -6 0
                    19 -31 36 -64 36 -21 0 -27 7 -36 43 -19 74 -31 107 -42 113 -20 13 -25 -13
                    -12 -71 7 -33 13 -72 13 -87 1 -31 25 -48 70 -48 24 0 31 -4 31 -19 0 -35 -40
                    -64 -104 -75 -32 -6 -41 -4 -53 13 -15 22 -43 29 -43 11 0 -5 -9 -10 -21 -10
                    -25 0 -62 79 -78 166 -12 65 -26 87 -41 64 -5 -8 -10 -22 -10 -31 0 -10 -11
                    -20 -25 -23 -14 -4 -25 -11 -25 -16 0 -6 9 -6 25 0 27 10 41 -1 31 -25 -3 -8
                    -2 -15 3 -15 5 0 11 -12 14 -26 3 -19 1 -24 -10 -20 -8 4 -26 9 -40 12 l-26 7
                    24 13 c28 16 21 18 -15 4 -30 -11 -42 1 -27 28 7 13 7 22 -1 30 -7 7 -8 12 -2
                    12 5 0 10 19 12 41 4 60 46 154 68 154 10 0 20 8 22 19 3 11 0 16 -7 12 -6 -4
                    -11 0 -11 8 0 9 7 16 16 16 8 0 13 -4 10 -8 -2 -4 -1 -14 5 -22 7 -12 9 -12 9
                    -1 0 9 4 10 13 4 6 -5 34 -11 61 -12 27 -2 61 -7 75 -13 40 -15 143 -15 149 0
                    7 19 3 20 -94 37 -105 19 -155 35 -232 75 -62 32 -156 123 -190 182 l-20 36
                    59 57 c33 32 58 60 55 62 -3 3 -32 -20 -65 -52 -68 -65 -67 -65 -95 42 -69
                    267 87 564 375 710 140 70 351 90 485 44z"></path>
                    <path d="M635 1235 c-55 -16 -113 -47 -98 -52 10 -4 124 40 142 54 13 10 -9 9
                    -44 -2z"></path>
                    <path d="M610 1160 c-47 -28 -78 -50 -69 -50 17 0 125 62 149 86 23 22 11 17
                    -80 -36z"></path>
                    <path d="M1156 1154 c-9 -8 -16 -26 -16 -38 0 -54 77 -63 95 -12 8 24 6 31
                    -14 47 -28 23 -45 24 -65 3z"></path>
                    <path d="M617 1109 c-32 -23 -56 -44 -53 -47 3 -3 14 1 23 9 10 8 35 24 56 34
                    45 23 67 45 46 45 -8 0 -40 -19 -72 -41z"></path>
                    <path d="M1524 1092 c-34 -23 -20 -82 19 -82 45 0 62 43 29 73 -20 19 -31 21
                    -48 9z"></path>
                    <path d="M709 1002 c-75 -51 -127 -103 -101 -102 8 1 140 120 132 120 -3 0
                    -17 -8 -31 -18z"></path>
                    <path d="M1275 959 c-9 -14 21 -46 51 -53 40 -10 104 11 104 34 0 22 -16 25
                    -55 10 -19 -7 -34 -6 -55 5 -35 18 -37 18 -45 4z"></path>
                    <path d="M708 931 c-18 -17 -28 -30 -23 -30 15 0 70 47 63 54 -3 4 -21 -7 -40
                    -24z"></path>
                    <path d="M750 845 c-18 -19 -31 -37 -28 -40 7 -7 78 53 78 66 0 17 -16 9 -50
                    -26z"></path>
                    <path d="M773 823 c-24 -16 -30 -33 -14 -33 6 0 23 11 38 25 32 28 13 34 -24
                    8z"></path>
                    <path d="M760 580 c0 -5 5 -10 11 -10 5 0 7 5 4 10 -3 6 -8 10 -11 10 -2 0 -4
                    -4 -4 -10z"></path>
                    <path d="M740 525 c-14 -8 -20 -14 -14 -15 5 0 19 7 30 15 24 18 16 19 -16 0z"></path>
                    <path d="M4951 1721 c-26 -26 -27 -45 -1 -71 28 -28 20 -36 -43 -44 -60 -8
                    -122 -27 -139 -44 -31 -31 27 -89 76 -76 20 5 24 1 29 -28 4 -18 9 -43 13 -55
                    5 -19 2 -23 -15 -23 -30 0 -194 -41 -206 -51 -5 -5 -17 -9 -26 -9 -23 0 -30
                    -24 -18 -60 14 -38 37 -39 197 -6 64 13 178 31 252 40 74 9 165 21 203 26 37
                    6 81 10 97 10 31 0 60 30 60 63 0 23 -62 50 -99 43 -39 -8 -171 -17 -171 -12
                    0 3 5 17 12 31 8 19 8 31 0 50 -11 23 -9 25 16 31 51 11 69 22 74 49 4 19 -1
                    31 -19 45 -22 17 -35 19 -100 13 l-74 -6 6 24 c5 19 0 29 -23 46 -46 34 -77
                    38 -101 14z m139 -206 c0 -6 -30 -61 -50 -92 -18 -27 -50 -31 -50 -5 0 9 -7
                    30 -15 46 -9 16 -12 33 -8 37 14 13 123 25 123 14z m-155 -125 c3 -5 1 -10 -4
                    -10 -6 0 -11 5 -11 10 0 6 2 10 4 10 3 0 8 -4 11 -10z m190 -30 c3 -5 1 -10
                    -4 -10 -6 0 -11 5 -11 10 0 6 2 10 4 10 3 0 8 -4 11 -10z m160 -10 c3 -5 1
                    -10 -4 -10 -6 0 -11 5 -11 10 0 6 2 10 4 10 3 0 8 -4 11 -10z"></path>
                    <path d="M3375 1544 c-96 -12 -172 -37 -192 -62 -20 -24 -15 -50 10 -67 20
                    -13 35 -13 137 5 63 11 138 20 166 20 49 0 52 -2 65 -32 20 -49 11 -415 -12
                    -443 -4 -6 -8 -20 -8 -30 1 -11 -3 -40 -8 -65 -7 -39 -12 -45 -39 -51 -46 -9
                    -54 -17 -54 -52 0 -34 24 -70 51 -80 24 -8 95 12 114 33 34 37 55 129 71 307
                    18 205 14 394 -9 439 -25 48 -59 71 -117 82 -63 12 -55 12 -175 -4z m155 -59
                    c0 -8 -4 -15 -10 -15 -5 0 -10 7 -10 15 0 8 5 15 10 15 6 0 10 -7 10 -15z m60
                    -499 c0 -3 -4 -8 -10 -11 -5 -3 -10 -1 -10 4 0 6 5 11 10 11 6 0 10 -2 10 -4z"></path>
                    <path d="M4125 1510 c-11 -12 -19 -40 -21 -77 -7 -112 -11 -123 -47 -124 -18
                    0 -41 -2 -52 -5 -11 -2 -47 -7 -80 -10 -33 -4 -70 -13 -82 -20 -30 -19 -29
                    -55 2 -84 23 -21 29 -22 105 -16 44 4 80 5 80 3 0 -31 -97 -199 -149 -259 -60
                    -69 -62 -97 -9 -124 27 -14 32 -14 55 2 61 39 183 206 183 250 0 8 3 14 8 14
                    4 0 15 22 25 49 29 83 41 91 147 107 52 7 114 21 138 30 38 14 42 19 42 48 0
                    19 -8 40 -18 49 -18 17 -34 17 -159 -1 -35 -5 -65 -6 -68 -4 -3 3 -5 27 -5 54
                    0 58 -21 112 -48 127 -27 14 -26 14 -47 -9z"></path>
                    <path d="M2861 1451 c-22 -22 -22 -23 -4 -54 20 -33 73 -66 109 -67 30 0 56
                    33 52 66 -4 35 -43 64 -95 71 -33 4 -45 1 -62 -16z"></path>
                    <path d="M2255 1440 c-3 -6 -11 -8 -16 -5 -20 13 -21 -30 -4 -132 17 -107 21
                    -285 7 -338 -7 -27 -13 -30 -50 -33 -41 -3 -42 -4 -42 -41 0 -74 97 -125 153
                    -81 53 42 71 126 71 335 0 97 -5 135 -23 197 -13 43 -29 82 -35 87 -20 16 -54
                    22 -61 11z m40 -450 c3 -5 1 -10 -4 -10 -6 0 -11 5 -11 10 0 6 2 10 4 10 3 0
                    8 -4 11 -10z"></path>
                    <path d="M3281 1326 c-45 -8 -68 -17 -78 -32 -24 -36 -7 -56 57 -66 24 -3 133
                    13 151 23 22 11 33 57 18 75 -13 16 -56 16 -148 0z"></path>
                    <path d="M5070 1270 c-41 -13 -142 -33 -178 -34 -61 -2 -74 -47 -51 -186 15
                    -92 37 -112 114 -111 30 0 59 2 63 5 4 2 48 7 97 11 50 4 100 13 112 21 26 16
                    43 87 43 178 0 61 -2 66 -35 95 -31 27 -43 31 -88 30 -29 -1 -63 -5 -77 -9z
                    m114 -59 c3 -5 -1 -11 -9 -14 -9 -4 -12 -1 -8 9 6 16 10 17 17 5z m-24 -86 c0
                    -63 -7 -69 -91 -78 -30 -4 -69 -10 -87 -13 -19 -4 -32 -2 -32 4 0 5 16 13 35
                    16 19 4 35 11 35 16 0 6 5 10 11 10 5 0 7 -5 4 -11 -8 -12 65 -2 79 12 16 14
                    16 41 0 57 -13 12 -26 13 -90 2 -69 -11 -96 -9 -82 6 7 6 150 31 191 33 26 1
                    27 0 27 -54z m-280 25 c0 -5 -5 -10 -11 -10 -5 0 -7 5 -4 10 3 6 8 10 11 10 2
                    0 4 -4 4 -10z"></path>
                    <path d="M2863 1244 c-58 -20 -75 -31 -87 -55 -14 -28 -13 -32 5 -50 21 -21
                    49 -22 123 -3 l28 7 -6 -54 c-7 -55 -9 -69 -25 -194 -9 -67 -8 -71 15 -92 14
                    -13 32 -23 40 -23 53 0 154 102 154 156 0 28 -5 35 -25 40 -15 4 -32 1 -42 -7
                    -15 -13 -16 -8 -9 56 21 222 21 223 -8 235 -41 15 -84 11 -163 -16z"></path>
                    <path d="M3297 1181 c-114 -23 -122 -31 -122 -126 0 -101 20 -130 93 -131 59
                    -1 170 20 185 35 27 27 35 185 11 219 -18 27 -44 27 -167 3z m73 -111 c0 -32
                    -22 -50 -64 -50 -22 0 -26 5 -26 29 0 25 5 30 38 39 20 5 40 10 45 11 4 1 7
                    -12 7 -29z"></path>
                    <path d="M1984 1178 c-12 -5 -34 -34 -49 -63 l-28 -53 18 -43 c10 -24 19 -53
                    20 -64 2 -27 37 -31 59 -6 21 23 46 117 46 173 0 20 -7 44 -16 52 -18 18 -21
                    18 -50 4z"></path>
                    <path d="M2516 1168 c-20 -28 -12 -62 28 -113 37 -48 45 -55 72 -55 61 0 76
                    75 27 134 -48 58 -100 72 -127 34z"></path>
                    <path d="M4232 1058 c-22 -22 -13 -66 20 -104 40 -46 184 -153 217 -161 42
                    -11 76 8 79 45 3 28 -15 62 -32 62 -3 0 -16 10 -29 23 -13 12 -62 50 -109 85
                    -85 61 -122 74 -146 50z m258 -158 c0 -5 -2 -10 -4 -10 -3 0 -8 5 -11 10 -3 6
                    -1 10 4 10 6 0 11 -4 11 -10z"></path>
                    <path d="M377 921 c-3 -16 -2 -45 4 -64 10 -36 59 -87 84 -87 30 0 26 23 -9
                    51 -29 25 -37 39 -42 79 -7 56 -28 67 -37 21z"></path>
                    <path d="M5313 943 c-7 -2 -13 -18 -13 -34 0 -22 11 -37 51 -69 55 -43 81 -53
                    125 -48 24 2 29 8 31 33 4 38 -9 53 -75 93 -48 29 -88 38 -119 25z"></path>
                    <path d="M4701 909 c-22 -36 -37 -125 -26 -158 13 -41 103 -14 106 32 0 6 4
                    34 8 60 9 53 -4 80 -46 92 -18 5 -26 0 -42 -26z"></path>
                    <path d="M5052 918 c-19 -19 -14 -46 15 -84 21 -29 32 -34 57 -32 29 3 31 6
                    34 44 3 35 -1 45 -24 63 -30 23 -64 27 -82 9z"></path>
                    <path d="M276 911 c-3 -5 -9 -29 -12 -53 -8 -64 27 -126 84 -150 40 -16 43
                    -16 49 -1 4 11 0 21 -12 27 -58 34 -75 60 -78 120 -2 55 -17 81 -31 57z"></path>
                    <path d="M4865 886 c-15 -11 -19 -25 -18 -69 2 -67 20 -105 70 -145 94 -74
                    251 -65 359 21 29 24 35 34 32 60 -2 21 -11 35 -25 43 -13 6 -20 14 -16 17 17
                    17 -18 4 -53 -19 -58 -40 -98 -54 -152 -54 -51 0 -102 27 -102 55 0 8 -10 21
                    -22 29 -12 9 -17 16 -10 16 20 0 14 28 -10 44 -27 19 -29 19 -53 2z"></path>
                    <path d="M2886 601 c-6 -10 10 -25 36 -34 25 -9 34 14 13 30 -22 15 -41 17
                    -49 4z"></path>
                    <path d="M4406 595 c7 -17 39 -29 54 -20 17 10 -9 35 -36 35 -16 0 -22 -4 -18
                    -15z"></path>
                    <path d="M4772 598 c7 -21 42 -38 58 -27 13 8 12 11 -4 24 -23 18 -59 20 -54
                    3z"></path>
                    <path d="M2580 593 c-53 -9 -57 -13 -31 -34 13 -11 22 -21 20 -22 -2 -2 -17
                    -9 -33 -16 -23 -9 -27 -14 -16 -21 8 -5 18 -6 22 -4 4 3 8 -3 8 -14 0 -13 -10
                    -22 -32 -28 -36 -11 -46 -41 -13 -36 11 1 61 6 110 10 70 5 90 10 90 22 0 9
                    -11 16 -26 18 -22 3 -25 7 -21 32 4 26 0 30 -29 38 l-34 9 28 12 c52 20 20 45
                    -43 34z m40 -108 c0 -15 -26 -32 -36 -23 -2 3 -2 13 2 22 8 20 34 21 34 1z"></path>
                    <path d="M3656 593 c-3 -3 -6 -25 -7 -47 -1 -31 -3 -35 -7 -18 -8 26 -27 31
                    -26 7 3 -60 1 -58 52 -50 26 4 48 8 49 9 1 0 3 14 5 30 4 36 -15 45 -30 14
                    -10 -21 -11 -20 -11 14 -1 36 -12 54 -25 41z"></path>
                    <path d="M4088 542 c-27 -47 -27 -47 -28 -16 0 45 -16 53 -79 43 -29 -4 -55
                    -10 -58 -12 -4 -4 -25 -171 -27 -212 -1 -11 4 -21 9 -23 9 -3 18 25 31 94 2
                    14 13 23 31 26 16 3 36 9 46 13 15 6 17 1 17 -49 0 -43 -3 -56 -15 -56 -8 0
                    -15 -4 -15 -9 0 -5 7 -14 15 -21 28 -23 45 5 45 76 0 95 19 89 22 -7 2 -55 7
                    -84 16 -87 7 -2 12 5 12 18 0 11 6 20 13 19 6 -1 36 -1 65 0 39 1 52 5 52 16
                    0 10 -10 15 -30 15 -34 0 -40 15 -10 23 26 7 25 26 -2 36 l-22 8 22 5 c28 8
                    29 28 2 28 -11 0 -20 4 -20 9 0 5 9 13 20 16 23 7 27 35 6 35 -7 0 -16 9 -19
                    21 -7 27 -32 19 -31 -9 0 -13 -7 -24 -18 -28 -22 -7 -24 -22 -3 -30 8 -4 15
                    -10 15 -15 0 -5 -7 -9 -15 -9 -8 0 -15 -5 -15 -10 0 -6 7 -13 15 -16 8 -4 15
                    -10 15 -15 0 -5 -7 -9 -15 -9 -8 0 -15 -4 -15 -10 0 -5 7 -10 15 -10 21 0 19
                    -13 -5 -28 -19 -12 -20 -10 -20 68 0 53 5 91 15 111 15 27 13 49 -3 49 -4 0
                    -19 -21 -34 -48z m-58 -33 c0 -20 -5 -29 -16 -29 -13 0 -14 3 -5 14 10 12 8
                    17 -11 27 -22 12 -22 12 -3 19 28 10 35 4 35 -31z m-60 11 c0 -5 -4 -10 -10
                    -10 -14 0 -12 -28 2 -32 7 -3 6 -7 -5 -11 -14 -5 -17 0 -17 28 0 24 5 35 15
                    35 8 0 15 -4 15 -10z"></path>
                    <path d="M2415 570 c-8 -12 33 -53 45 -45 16 10 11 34 -9 45 -24 12 -28 13
                    -36 0z"></path>
                    <path d="M3320 534 c-25 -57 -26 -77 -2 -70 9 2 32 7 50 11 l33 7 -6 -54 c-9
                    -72 -13 -81 -31 -74 -21 8 -15 -23 8 -38 28 -17 46 10 59 91 15 92 10 103 -41
                    103 -38 0 -40 1 -30 21 13 22 7 49 -10 49 -6 0 -20 -21 -30 -46z"></path>
                    <path d="M3757 573 c-11 -19 -38 -126 -33 -131 4 -3 16 4 29 16 31 29 34 28
                    29 -8 -4 -30 -17 -40 -24 -18 -2 6 -10 8 -16 4 -9 -5 -9 -12 -1 -28 9 -16 7
                    -24 -6 -37 -15 -15 -16 -15 -9 3 6 15 4 18 -9 13 -11 -4 -17 1 -19 16 -4 26
                    -35 34 -60 15 -21 -17 -36 -102 -17 -96 8 3 18 19 23 36 10 37 26 42 26 9 0
                    -30 10 -40 27 -26 9 8 17 8 26 1 10 -9 19 -7 35 4 20 14 24 13 51 -7 43 -32
                    60 -14 23 25 -28 29 -30 34 -22 76 4 24 13 46 19 48 6 2 11 11 11 19 0 12 -8
                    14 -34 10 -34 -5 -35 -5 -25 20 9 25 5 43 -11 43 -5 0 -11 -3 -13 -7z"></path>
                    <path d="M3546 539 c-29 -34 -33 -49 -13 -49 16 0 67 52 67 68 0 22 -28 12
                    -54 -19z"></path>
                    <path d="M4460 559 c-30 -5 -71 -9 -91 -10 -32 -1 -38 -5 -46 -34 -13 -41 -2
                    -65 21 -46 9 8 16 19 16 26 0 17 16 22 99 31 64 6 71 5 65 -10 -9 -23 28 -21
                    50 3 16 18 16 20 -6 35 -25 17 -27 18 -108 5z"></path>
                    <path d="M2902 548 c-102 -11 -140 -24 -124 -40 9 -9 31 -9 89 0 43 7 101 12
                    128 12 54 0 82 11 71 29 -8 13 -45 12 -164 -1z"></path>
                    <path d="M3187 515 c-27 -46 -34 -99 -18 -155 6 -22 13 -25 50 -25 53 0 63 15
                    59 93 l-3 57 -43 -1 -42 -1 32 27 c18 16 28 31 24 38 -13 22 -31 12 -59 -33z
                    m56 -70 c1 -6 -11 -11 -28 -13 -29 -2 -29 -2 -10 13 20 16 35 16 38 0z m-3
                    -59 c0 -7 -9 -16 -20 -19 -19 -5 -28 12 -13 26 11 12 33 7 33 -7z"></path>
                    <path d="M4803 550 c-29 -4 -60 -10 -68 -14 -8 -3 -15 -1 -15 4 0 6 -4 10 -10
                    10 -14 0 -33 -81 -22 -92 14 -14 32 -1 32 21 0 22 63 41 134 41 39 0 46 -3 46
                    -20 0 -24 8 -25 38 -4 27 19 28 40 3 54 -22 11 -60 11 -138 0z"></path>
                    <path d="M4799 498 c-1 -7 -2 -20 -3 -28 0 -9 -15 -17 -36 -20 -32 -5 -35 -8
                    -38 -40 -2 -19 1 -52 8 -72 l11 -38 70 4 c39 2 74 7 79 12 6 6 14 34 20 63 12
                    64 3 81 -46 81 -26 0 -33 4 -36 22 -3 24 -27 37 -29 16z m75 -76 c9 -16 -15
                    -82 -29 -82 -20 0 -19 26 0 34 8 3 15 10 15 16 0 5 -7 10 -15 10 -8 0 -15 7
                    -15 15 0 16 35 21 44 7z m-84 -12 c0 -12 -28 -25 -36 -17 -9 9 6 27 22 27 8 0
                    14 -5 14 -10z m0 -60 c0 -5 -7 -10 -15 -10 -8 0 -15 5 -15 10 0 6 7 10 15 10
                    8 0 15 -4 15 -10z"></path>
                    <path d="M2891 491 c-37 -10 -38 -31 -3 -31 50 0 92 12 92 26 0 15 -45 18 -89
                    5z"></path>
                    <path d="M3543 454 c-38 -51 -41 -69 -13 -61 18 5 20 0 20 -38 0 -44 13 -65
                    26 -44 4 7 7 40 7 73 -1 37 5 68 13 80 39 56 -13 46 -53 -10z"></path>
                    <path d="M4411 491 c-34 -9 -39 -31 -7 -31 16 0 26 -6 26 -15 0 -8 -6 -15 -12
                    -15 -34 0 -88 -22 -88 -36 0 -12 9 -13 50 -8 l50 7 0 -37 c0 -25 -4 -36 -15
                    -36 -22 0 -18 -28 5 -35 33 -10 50 12 50 66 l0 48 45 7 c30 4 45 11 45 21 0
                    11 -11 14 -47 12 -39 -3 -48 0 -51 14 -2 12 3 17 17 17 12 0 21 6 21 15 0 16
                    -43 19 -89 6z"></path>
                    <path d="M2415 483 c-47 -12 -55 -43 -11 -43 21 0 22 -3 18 -54 -3 -35 0 -56
                    7 -61 13 -8 47 18 63 49 9 16 7 18 -14 13 -23 -6 -24 -4 -23 45 0 52 -5 59
                    -40 51z"></path>
                    <path d="M3643 468 c-32 -11 -41 -22 -25 -32 14 -8 93 16 89 28 -5 15 -26 16
                    -64 4z"></path>
                    <path d="M2888 443 c-44 -7 -35 -33 10 -33 52 0 82 10 82 26 0 14 -31 16 -92
                    7z"></path>
                    <path d="M5040 435 c0 -13 24 -15 190 -13 118 2 190 7 190 13 0 6 -72 11 -190
                    13 -166 2 -190 0 -190 -13z"></path>
                    <path d="M3315 430 c-7 -12 12 -40 27 -40 16 0 21 32 7 41 -18 12 -26 11 -34
                    -1z"></path>
                    <path d="M3972 432 c-13 -4 -23 -10 -23 -14 1 -5 1 -17 1 -28 0 -15 7 -20 29
                    -20 32 0 47 23 35 54 -7 17 -7 17 -42 8z m18 -32 c0 -5 -4 -10 -10 -10 -5 0
                    -10 5 -10 10 0 6 5 10 10 10 6 0 10 -4 10 -10z"></path>
                    <path d="M2560 403 c-37 -7 -43 -17 -35 -62 7 -40 7 -41 48 -41 23 0 51 3 62
                    6 25 6 49 72 33 91 -10 13 -57 15 -108 6z m70 -37 c0 -17 -5 -21 -41 -30 -21
                    -4 -28 -2 -32 14 -3 14 1 20 17 23 43 8 56 7 56 -7z"></path>
                    <path d="M2910 391 c-52 -6 -55 -7 -58 -36 -2 -16 3 -39 11 -49 13 -18 20 -19
                    73 -10 57 9 59 10 67 48 9 38 -1 58 -28 54 -5 -1 -35 -4 -65 -7z m50 -46 c0
                    -8 -9 -15 -19 -15 -11 0 -26 -3 -35 -6 -12 -4 -16 0 -16 15 0 17 6 21 35 21
                    24 0 35 -5 35 -15z"></path>
                </g>
            </svg>